<svg width="36" height="36" viewBox="0 0 36 36" fill="none" xmlns="http://www.w3.org/2000/svg">
<path fill-rule="evenodd" clip-rule="evenodd" d="M14.9161 4.875H21.0841C23.8411 4.875 26.0251 4.875 27.7336 5.1045C29.4916 5.3415 30.9151 5.8395 32.0386 6.9615C33.1606 8.085 33.6586 9.5085 33.8956 11.2665C34.0306 12.276 34.0861 13.4505 34.1086 14.811C34.1272 14.9251 34.1292 15.0413 34.1146 15.156C34.1236 16.004 34.1271 16.924 34.1251 17.916V18.084C34.1251 20.841 34.1251 23.025 33.8956 24.7335C33.6586 26.4915 33.1606 27.915 32.0386 29.0385C30.9151 30.1605 29.4916 30.6585 27.7336 30.8955C26.0236 31.125 23.8411 31.125 21.0841 31.125H14.9161C12.1591 31.125 9.97506 31.125 8.26656 30.8955C6.50856 30.6585 5.08506 30.1605 3.96156 29.0385C2.83956 27.915 2.34156 26.4915 2.10456 24.7335C1.87506 23.0235 1.87506 20.841 1.87506 18.084V17.916C1.87306 16.924 1.87656 16.004 1.88556 15.156C1.87043 15.0414 1.87195 14.9252 1.89006 14.811C1.91406 13.4505 1.96956 12.276 2.10456 11.2665C2.34156 9.5085 2.83956 8.085 3.96156 6.9615C5.08506 5.8395 6.50856 5.3415 8.26656 5.1045C9.97656 4.875 12.1591 4.875 14.9161 4.875ZM4.12806 16.125C4.12606 16.707 4.12506 17.332 4.12506 18C4.12506 20.8605 4.12806 22.893 4.33506 24.435C4.53756 25.9425 4.91856 26.8125 5.55306 27.447C6.18756 28.0815 7.05756 28.4625 8.56656 28.665C10.1086 28.872 12.1396 28.875 15.0001 28.875H21.0001C23.8606 28.875 25.8931 28.872 27.4351 28.665C28.9426 28.4625 29.8126 28.0815 30.4471 27.447C31.0816 26.8125 31.4626 25.9425 31.6651 24.4335C31.8721 22.8915 31.8751 20.8605 31.8751 18C31.8751 17.332 31.8741 16.707 31.8721 16.125H4.12806ZM31.8361 13.875H4.16406C4.19406 12.9945 4.24506 12.234 4.33506 11.565C4.53756 10.0575 4.91856 9.1875 5.55306 8.553C6.18756 7.9185 7.05756 7.5375 8.56656 7.335C10.1086 7.128 12.1396 7.125 15.0001 7.125H21.0001C23.8606 7.125 25.8931 7.128 27.4351 7.335C28.9426 7.5375 29.8126 7.9185 30.4471 8.553C31.0816 9.1875 31.4626 10.0575 31.6651 11.5665C31.7551 12.234 31.8061 12.9945 31.8361 13.875ZM7.87506 24C7.87506 23.7016 7.99358 23.4155 8.20456 23.2045C8.41554 22.9935 8.70169 22.875 9.00006 22.875H15.0001C15.2984 22.875 15.5846 22.9935 15.7956 23.2045C16.0065 23.4155 16.1251 23.7016 16.1251 24C16.1251 24.2984 16.0065 24.5845 15.7956 24.7955C15.5846 25.0065 15.2984 25.125 15.0001 25.125H9.00006C8.70169 25.125 8.41554 25.0065 8.20456 24.7955C7.99358 24.5845 7.87506 24.2984 7.87506 24ZM17.6251 24C17.6251 23.7016 17.7436 23.4155 17.9546 23.2045C18.1655 22.9935 18.4517 22.875 18.7501 22.875H21.0001C21.2984 22.875 21.5846 22.9935 21.7956 23.2045C22.0065 23.4155 22.1251 23.7016 22.1251 24C22.1251 24.2984 22.0065 24.5845 21.7956 24.7955C21.5846 25.0065 21.2984 25.125 21.0001 25.125H18.7501C18.4517 25.125 18.1655 25.0065 17.9546 24.7955C17.7436 24.5845 17.6251 24.2984 17.6251 24Z" fill="#6B7280"/>
</svg>
